<svg id="Camada_1" data-name="Camada 1" xmlns="http://www.w3.org/2000/svg" xmlns:xlink="http://www.w3.org/1999/xlink" viewBox="0 0 979.83 200.35"><defs><style>.cls-1{fill:none;}.cls-2{clip-path:url(#clip-path);}.cls-3{fill:#1d1d1b;}</style><clipPath id="clip-path"><rect class="cls-1" width="979.83" height="200.35"/></clipPath></defs><title>Prancheta 6</title><g class="cls-2"><g class="cls-2"><path class="cls-3" d="M414.62,176.8c5.61-27.64,10.92-53.57,16.14-79.52,2.84-14.08.52-17.23-13.79-19.22-.74-.1-1.5-.16-2.25-.22-18-1.58-18.45-1.14-22.06,16.4-5,24.17-10.57,48.22-14.89,72.5-1.45,8.15-4.59,10.88-12.43,10.2-5.52-.49-11.12-.1-18.34-.1C353.64,143.68,360,112,366.77,78c-12.41,0-23.58-.75-34.51.52-2.77.32-6,6.8-6.95,10.91-5.38,24.46-10.81,48.94-14.8,73.64-1.84,11.4-6.63,15.46-17.64,13.87-3.66-.53-7.45-.08-13.54-.08,2.6-12.93,5-24.77,7.37-36.6,4.55-22.35,9.39-44.65,13.55-67.08,1.21-6.5,3.83-8.51,10.37-8.46,41.47.27,82.95,0,124.42.25,20.12.13,28,8.88,24.66,28.21-4.41,25.41-9.74,50.68-15.38,75.85-.69,3.09-5.43,6.81-8.82,7.43-6.44,1.19-13.26.35-20.88.35"/><path class="cls-3" d="M168.3,22.51c-1.09,6.16-1.87,10.53-3,16.56-21.6,0-43.32,0-65,0-15.82,0-23.51,5.38-28.87,20-.24.66,0,1.48,0,5.41h87.12c1.05,10.15-2.42,13.61-11.82,13.41-23.37-.5-46.77.23-70.14-.35-9.13-.22-12.95,3.58-14.25,11.81-2.58,16.25-5.66,32.41-8,48.69-2.28,16.13,4.11,23.44,20.27,23.59,21.06.2,42.12.05,63.56.05,1.49,10.32-.56,15.56-11.83,15.32-26-.55-52,0-78.06-.3-21.42-.24-30.38-7.8-30-29.06C19,112.6,25.85,78.53,40.84,46.46c7.52-16.08,21.53-23.22,38.22-23.71,29.34-.86,58.72-.24,89.24-.24"/><path class="cls-3" d="M573.11,176.46c-34.16,0-67.65.54-101.11-.29-11.79-.29-17.73-12.82-12.07-23.35,2.57-4.78,6.7-9,10.93-12.58,10.66-8.94,21.79-17.31,32.71-25.94,15.78-12.49,23.83-14.29,47-9.71-17.78,14.11-34.91,27.32-51.52,41.14-4.79,4-8.08,9.78-12.06,14.74,6,1.13,12,2.95,18,3.23a275.8,275.8,0,0,0,33.9-.21c3.21-.25,8.09-4.08,8.8-7.07,4.9-20.73,9.15-41.62,13-62.57,1.41-7.58-1.86-13.58-10.34-14.4-10.08-1-20.24-1.4-30.37-1.65-10.89-.27-21.8-.06-32.63-.06-1.24-12.72-1.24-12.84,9.94-12.88q32.24-.12,64.48,0C586,64.92,594,74.52,589.32,98c-5.14,25.67-10.59,51.27-16.21,78.42"/><path class="cls-3" d="M823,163.84c1.69,9.53-1.19,13.32-10.46,13.14-22.61-.44-45.24,0-67.86-.22-20.44-.24-27-6.41-24.57-26.84,2.64-21.83,7.65-43.4,12.09-65,4.15-20.15,4.41-20.1,25.49-20.1,24.13,0,48.29-.69,72.37.46,6.8.32,16,4.39,19.38,9.7,4.81,7.55,1.36,16.91-6.16,23-15.77,12.79-30.76,27-48.09,37.22-9,5.31-22.27,3.4-33.62,4.75-1.08-1.64-2.15-3.29-3.23-4.94,2.6-1.15,5.58-1.83,7.76-3.52,16.92-13.16,33.81-26.36,50.37-40,2.74-2.25,3.79-6.54,5.62-9.89-3.29-1.31-6.56-3.64-9.89-3.75-13.56-.43-27.14,0-40.71-.27-6.59-.14-9.1,2.62-10.3,8.93-3.63,19.1-8,38.05-11.91,57.1-2.8,13.63,2.2,19.94,16.31,20.12,19.16.24,38.32.06,57.41.06"/><path class="cls-3" d="M279.41,65.08c1.62,9.08-1,13.13-10.39,12.79-15.08-.53-30.2-.18-45.29-.09-3.37,0-7.11-.28-10,1-3.46,1.55-8.05,4.27-8.71,7.23-.59,2.68,2.73,7.37,5.6,9.44,14.34,10.35,29,20.28,43.74,30.07,9.41,6.24,18.94,12.69,15.61,25.79-3.58,14.07-14.07,23.72-27.93,24.49-28.14,1.56-56.43.47-85,.47-1.35-9.11,1.7-12.77,10.74-12.56,17.73.42,35.51.68,53.2-.21,5.52-.28,10.84-4.49,16.25-6.89-3.13-4.13-5.51-9.26-9.52-12.19C213.4,134,199,123.54,183.83,114.54c-16.78-9.93-15.81-29-1.43-40,5.73-4.42,13.29-8.71,20.19-9,25.55-1.06,51.18-.42,76.82-.42"/><path class="cls-3" d="M691.32,63.67l31.35,1.47c-.75,4.45-1.36,8-2,12-3.8.22-7.14.55-10.48.59-21.86.27-21.95.23-26.41,21.16-2.87,13.52-5.43,27.11-8.09,40.67-3.94,20.07-1.08,23.53,19.9,24.35,2.18.09,4.35.56,7.5,1-1,4-1.91,7.51-3,11.66-11.91,0-23.59.7-35.14-.18-14.62-1.1-22.41-13.43-19.16-29.69,7.54-37.72,15.6-75.33,23-113.07,1.65-8.44,5-12.58,14.07-11.29,4.72.66,9.62.11,16.24.11-2.62,14-5,26.54-7.77,41.26"/><path class="cls-3" d="M964.87,64.86c1.21,9.77-2,13.09-10.45,13-13.52-.1-27,1-40.55,1.28-12,.24-19.34,7.21-22.55,17.29A270.1,270.1,0,0,0,880.72,141c-2.1,15.26,6,22.6,22,22.79,13.19.16,26.39.18,39.58.32a9.15,9.15,0,0,1,2.44.88c.69,8.08-2,12.17-11.26,11.95-20.35-.47-40.72,0-61.07-.26-14.83-.21-20.55-5.85-21.21-20.29-1.1-24,4.08-46.85,13.43-68.83,6.55-15.36,18-23.2,35.24-22.85,21.43.44,42.87.11,65,.11"/><path class="cls-3" d="M652.87,22.41c-9.37,46.06-18.21,90.3-27.4,134.46-4.64,22.29-6.83,23.36-32.71,18.24,2.42-12.59,4.73-25.26,7.29-37.87,6.9-34,14.2-68,20.68-102.06,1.85-9.7,5.41-14.66,16-12.9,4.71.79,9.66.13,16.11.13"/></g></g></svg>