<svg id="Camada_1" data-name="Camada 1" xmlns="http://www.w3.org/2000/svg" xmlns:xlink="http://www.w3.org/1999/xlink" viewBox="0 0 705.24 350.81"><defs><style>.cls-1{fill:none;}.cls-2{clip-path:url(#clip-path);}.cls-3{fill:#1d1d1b;}</style><clipPath id="clip-path"><rect class="cls-1" width="705.24" height="350.81"/></clipPath></defs><title>Prancheta 7</title><g class="cls-2"><g class="cls-2"><path class="cls-3" d="M556.16,103.9,239.38,195.46l-.92-1L374.89,9.24c.68,2.62-.4,4.06-1,5.52q-22.11,57.59-44.27,115.16c-1.75,4.56-1.7,4.59,3.2,3.91l160.56-22.34q31.17-4.33,62.36-8.61c.12.34.25.68.38,1"/><path class="cls-3" d="M134.5,280.39c0-7.72-.09-15.45,0-23.16.16-11.52,6-19.05,17.52-22.69,8.47-2.67,17.32-3.43,26.14-3.58,16.4-.28,32.82-.18,49.23,0a105.26,105.26,0,0,1,20.86,2.29c14.87,3.12,21.24,9.18,22.4,23.5a309.56,309.56,0,0,1,.06,47.47c-1,14.12-9.86,21.43-25.64,23.39a231.24,231.24,0,0,1-31.46,1.63c-15.41-.2-30.85.5-46.24-.81-6.58-.57-13.14-1.39-19.2-4.08-8.35-3.71-13.05-10.08-13.45-18.79-.37-8.37-.08-16.77-.08-25.15h-.16M202.89,302c9.07-.35,18.24.78,27.17-1.7,6.57-1.82,9.55-5.39,9.67-11.88.1-4.65,0-9.31,0-14,0-10.45-3.66-14.33-14.66-15.62-13.42-1.56-26.88-.71-40.32-.56a32.18,32.18,0,0,0-12.26,2.56c-4.49,1.91-6.63,5.09-6.61,9.71,0,5.45.3,10.93-.07,16.36-.71,10.29,5,12.73,12.71,14.14,8.07,1.47,16.22.65,24.34,1"/><path class="cls-3" d="M397.32,279.84c0-14.26,0-28.51,0-42.76,0-5.16.3-5.4,5.73-5.41h82.52a129.57,129.57,0,0,1,19.68,1.54c11.32,1.74,16.37,6.25,18.12,16.92a85.94,85.94,0,0,1,0,24.29,19.81,19.81,0,0,1-8,13.63c-.93.71-2.93,1.69-.39,2.83,6,2.66,7.53,7.73,7.8,13.2.35,6.78.13,13.58.16,20.37,0,2.9-1.63,4-4.53,4q-12-.07-24,0c-3.25,0-4.56-1.52-4.55-4.42q0-3.79,0-7.59c-.08-7.93-3.76-12.32-11.95-12.55-14.59-.4-29.19-.14-43.78-.17-2.73,0-3.68,1.4-3.66,3.8,0,5.33-.09,10.66,0,16,.07,3.54-1.47,5.06-5.28,5-7.43-.14-14.87,0-22.31-.05-4.82,0-5.54-.7-5.55-5.42,0-14.38,0-28.76,0-43.14M456,278.67v-.13c7.57,0,15.14,0,22.7,0a26.86,26.86,0,0,0,4.16-.58c4.83-.83,6.8-2.9,7.05-7.5.08-1.46.09-2.92,0-4.38-.19-5.6-2.84-8.21-8.69-8.76-15.52-1.47-31.08-.43-46.62-.74-3.1-.06-4.22,1.35-4.16,4.16.1,4.65.17,9.31,0,14-.14,3.25,1.39,4.1,4.53,4,7-.14,14,0,21,0"/><path class="cls-3" d="M663.47,328.4c-4.07,0-8.14,0-12.21,0a5.31,5.31,0,0,1-5.35-3.07c-1.55-3-3.5-5.78-4.94-8.8s-3.76-4.19-7.29-4.17q-27.36.17-54.71,0c-3.51,0-5.94,1-7.3,4.14-.58,1.34-1.8,2.46-2.25,3.82-2.37,7.19-7.7,8.86-15,8.18-5.56-.52-11.21,0-16.82-.14-4.37-.08-5.6-2-3.59-5.66q24.09-43.92,48.23-87.81a5.7,5.7,0,0,1,5.66-3.26q18.72.09,37.45,0a5.67,5.67,0,0,1,5.62,3.28q24.46,44.19,49,88.31c1.63,2.94.49,4.94-3.08,5.1-4.48.19-9,0-13.46,0ZM606.6,289.09c5.32,0,10.65-.07,16,0,2.73,0,3.66-.61,2.21-3.19-5.47-9.73-10.86-19.5-16.26-29.26-1.33-2.41-2.59-2.65-4,0q-7.69,14.63-15.43,29.23c-1.4,2.63-.27,3.27,2.36,3.24,5-.06,10.08,0,15.12,0"/><path class="cls-3" d="M334.49,230.82c16.41,0,32.83.1,49.24-.07,4.1,0,5.51,1.46,5.4,5.15-.15,5.19-.16,10.39,0,15.58.13,3.82-1.61,5.12-5.54,5.1-21.61-.1-43.21-.05-64.82,0-7.13,0-7.13,0-7.14,6.95a19.21,19.21,0,0,1,0,2.4c-.5,3.82,1.22,5.08,5.26,5.05,20.2-.15,40.4-.07,60.61-.06,6.31,0,6.52.21,6.55,6.35,0,4.8.06,9.59,0,14.38-.07,4.61-1.09,5.57-6.05,5.58-20.06,0-40.13,0-60.19,0-6.08,0-6.14.07-6.15,5.76,0,6.92,0,13.84,0,20.77-.05,4.41-1.1,5.39-5.76,5.43-6.88.07-13.75-.07-20.62.05-3.67.07-5-1.53-5-4.82q.06-44.53,0-89.07c0-3.51,1.47-4.59,5-4.56,16.42.12,32.83,0,49.25,0"/><path class="cls-3" d="M72.55,328.41q-23.14,0-46.3,0c-5.53,0-6.19-.57-6.2-5.62,0-28.63.05-57.25-.07-85.87,0-3.94,1.27-5.49,5.56-5.32,7.15.26,14.31.06,21.47.07,6,0,6.2.13,6.21,5.75q0,28.36,0,56.72c0,5.46,0,5.48,5.93,5.48h59.76c5.93,0,6.42.43,6.51,6.16s.07,11.45,0,17.17c-.06,4.46-1,5.42-5.74,5.43-15.72.05-31.43,0-47.14,0"/></g></g></svg>