<svg id="Camada_1" data-name="Camada 1" xmlns="http://www.w3.org/2000/svg" xmlns:xlink="http://www.w3.org/1999/xlink" viewBox="0 0 198.43 198.43"><defs><style>.cls-1{fill:none;}.cls-2{clip-path:url(#clip-path);}</style><clipPath id="clip-path"><rect class="cls-1" width="198.43" height="198.43"/></clipPath></defs><title>Prancheta 1</title><g class="cls-2"><g class="cls-2"><path d="M161.17,39c-16.48-17.13-36.84-26.17-60.63-26.71S55.72,19.91,38.43,36.46s-26.31,37-26.82,60.9,7.67,44.83,24.31,62.1C53,177.15,74,185.79,92.17,186.12c29.66.12,51.22-9.21,66.66-24.25,17.09-16.65,26.17-37,26.67-60.81s-7.73-44.76-24.33-62m18.88,62.38a82.84,82.84,0,0,1-1.37,13.41,73.62,73.62,0,0,1-2.36,9.47l-.18.55c-.1.29-.27.52-.6.42s-.27-.43-.21-.7.16-.58.24-.88A70,70,0,0,0,178,111.27a50.07,50.07,0,0,0,.3-6.12,28.92,28.92,0,0,0-2-10.6,12.75,12.75,0,0,0-3.7-5.21,7.05,7.05,0,0,0-6.37-1.49,5.39,5.39,0,0,0-4.06,4,7.55,7.55,0,0,0,1.15,6.55c.71,1.06,1.52,2,2.3,3A20.76,20.76,0,0,1,170,112.57a42.17,42.17,0,0,1-.43,11.05,80,80,0,0,1-5.67,18.83,58.33,58.33,0,0,1-10.4,15.86A64.09,64.09,0,0,1,135,172.25a76.33,76.33,0,0,1-19,6.6,80.47,80.47,0,0,1-11.14,1.55c-2.7.19-5.41.34-8.11.26a83.66,83.66,0,0,1-20.46-2.8c-.93-.26-1.84-.58-2.76-.88a5.85,5.85,0,0,1-.68-.3c-.21-.12-.35-.29-.23-.55a.43.43,0,0,1,.55-.24,4.34,4.34,0,0,1,.48.14,60.32,60.32,0,0,0,9.85,2.16,62.51,62.51,0,0,0,9.16.65,29.36,29.36,0,0,0,9.53-1.49,14.33,14.33,0,0,0,5.35-3.08,7.15,7.15,0,0,0,2.33-7.19,6.24,6.24,0,0,0-5.65-4.61,8.35,8.35,0,0,0-5.69,2.09c-1.23.95-2.39,2-3.66,2.86a19.5,19.5,0,0,1-8.65,3.34,33.85,33.85,0,0,1-6.2.28,56.51,56.51,0,0,1-11.76-1.86,76.85,76.85,0,0,1-13.44-4.65,61.36,61.36,0,0,1-13.07-8.26,63.83,63.83,0,0,1-15.54-19.08,75,75,0,0,1-6.93-18.32,82.64,82.64,0,0,1-1.86-11.17,80.16,80.16,0,0,1-.41-10.5,86.66,86.66,0,0,1,1.32-12.75,83.94,83.94,0,0,1,2.45-10.13,5.3,5.3,0,0,1,.26-.7.37.37,0,0,1,.49-.19.35.35,0,0,1,.24.4,2.87,2.87,0,0,1-.14.56,68.17,68.17,0,0,0-2.27,10.76A49.23,49.23,0,0,0,19,90.84c0,.49-.1,1-.09,1.48a33.48,33.48,0,0,0,1.16,9.5,15.38,15.38,0,0,0,3.31,6.24,7.83,7.83,0,0,0,5.74,2.75,6,6,0,0,0,6.12-7.21,9.66,9.66,0,0,0-1.86-4c-.65-.89-1.32-1.76-2-2.64A20.74,20.74,0,0,1,27.11,86,44.68,44.68,0,0,1,28,72.29,79.28,79.28,0,0,1,33,56.68,61,61,0,0,1,43.77,40.2a63.17,63.17,0,0,1,11.44-9.78A71.37,71.37,0,0,1,71,22.53a80.65,80.65,0,0,1,14.18-3.64A81.46,81.46,0,0,1,93.78,18c1.71-.1,3.42-.14,5.13-.16a79.62,79.62,0,0,1,24.36,3.84,8.78,8.78,0,0,1,.85.33.42.42,0,0,1,.26.6.4.4,0,0,1-.56.18l-2-.65A53.82,53.82,0,0,0,111.56,20c-1.68-.18-3.36-.25-5-.35a32.13,32.13,0,0,0-9.68.88,16.06,16.06,0,0,0-6.8,3.3A7.8,7.8,0,0,0,87,30.24a6,6,0,0,0,5.54,5.7,8.43,8.43,0,0,0,5.79-1.83c1.31-1,2.55-2,3.89-3A19.84,19.84,0,0,1,110.48,28a33.47,33.47,0,0,1,6.78-.32A54.5,54.5,0,0,1,128,29.29a84.17,84.17,0,0,1,12.59,4.11A60.67,60.67,0,0,1,157.16,44a63,63,0,0,1,12.69,15.83A76.83,76.83,0,0,1,179,86.25a85.86,85.86,0,0,1,1,10.37c.06,1.6.11,3.2.07,4.8"/><path d="M143.17,107.58a14.93,14.93,0,0,0-8.44-3.87,16,16,0,0,0-11.43,2.66,13.49,13.49,0,0,0-4.21,18,8.54,8.54,0,0,0,4,3.75,6.22,6.22,0,0,0,4.28.51,3.09,3.09,0,0,0,2.19-3.88A6.11,6.11,0,0,0,128,122.2a14.77,14.77,0,0,1-1.43-1.83,5.92,5.92,0,0,1,2.39-8.6,7.19,7.19,0,0,1,4.85-.51,8.05,8.05,0,0,1,5.68,4.89,15.61,15.61,0,0,1,1.34,8.15,16.18,16.18,0,0,1-5.2,10.78,14.52,14.52,0,0,1-11.7,3.78,15.33,15.33,0,0,1-10.34-5.52,23.24,23.24,0,0,1-5.42-14.71,28.4,28.4,0,0,1,.27-5,23.7,23.7,0,0,1,6.93-14.51,21.52,21.52,0,0,1,8.35-5.08,2.42,2.42,0,0,1,1.13-.13c1.21.17,2.42.27,3.63.37a21.44,21.44,0,0,0,5.77-.24,7,7,0,0,0,2.9-1.15,3,3,0,0,0,.31-4.75,7.28,7.28,0,0,0-2.84-1.47,15.39,15.39,0,0,0-7.14-.29,20.05,20.05,0,0,0-2.65.64,1.15,1.15,0,0,1-1.09-.17,8.07,8.07,0,0,1-2.83-3.5c-.39-.84-.37-.85.36-1.41a77.61,77.61,0,0,0,10.59-9.5,28,28,0,0,0,4.72-6.88,14.74,14.74,0,0,0,1.58-8.42,7.78,7.78,0,0,0-5.49-6.73,10.41,10.41,0,0,0-5.31-.32,14.92,14.92,0,0,0-7.89,4.29,27.38,27.38,0,0,0-6.87,11.75,30.41,30.41,0,0,0-1.36,8.88,20.87,20.87,0,0,0,.39,5.11.84.84,0,0,1-.4,1c-1.28.87-2.52,1.79-3.8,2.66-5,3.41-10.13,6.51-15.3,9.61-.18.11-.34.28-.59.22a1,1,0,0,1-.13-.8,51.71,51.71,0,0,1,.86-6.31,1.65,1.65,0,0,1,.46-.86c.9-.93,1.73-1.93,2.55-2.94a24.67,24.67,0,0,0,3.48-5.42,7.26,7.26,0,0,0,.76-3.61A3,3,0,0,0,96.17,71a5.9,5.9,0,0,0-2.57.86A11.67,11.67,0,0,0,90,75.61a23.6,23.6,0,0,0-3.12,7.45,2.47,2.47,0,0,1-.63,1.32,29.63,29.63,0,0,1-2.72,2.54,16.6,16.6,0,0,1-5,2.83,6.83,6.83,0,0,1-3.1.36,4.3,4.3,0,0,1-3.43-3c-.27-.68-.23-.76.46-1A26.28,26.28,0,0,0,76.52,84,39.22,39.22,0,0,0,88,72.73a29.26,29.26,0,0,0,4.9-11.4,13.55,13.55,0,0,0,.1-5.27,7.06,7.06,0,0,0-3.26-4.88,9.61,9.61,0,0,0-5.25-1.25,13.24,13.24,0,0,0-6.59,2,24.12,24.12,0,0,0-7.36,7.18,38.6,38.6,0,0,0-6.9,20.27c0,.61-.14.72-.76.62a4.78,4.78,0,0,1-3.08-1.79A9.16,9.16,0,0,1,58,72.79a22.41,22.41,0,0,1,.84-6c.13-.53.29-1.07.38-1.61A2.08,2.08,0,0,0,57,62.63a4.1,4.1,0,0,0-2.64,1.24,8.07,8.07,0,0,0-2,3.12,17.11,17.11,0,0,0-1,8.14,13.59,13.59,0,0,0,2.8,7,12.37,12.37,0,0,0,8.28,4.73,2,2,0,0,1,1.86,1.6,11.67,11.67,0,0,0,5.86,6.9,10.13,10.13,0,0,0,6,1,15.38,15.38,0,0,0,8.06-3.15c.06,0,.13-.11.22-.06s.07.1.07.14c-.2,1.36-.41,2.72-.62,4.09a.94.94,0,0,1-.61.71l-7,3.65a125.77,125.77,0,0,0-12.76,7.55,56.05,56.05,0,0,0-6.31,5,29.47,29.47,0,0,0-7.2,9.92,18.43,18.43,0,0,0-1.56,11.21,13.36,13.36,0,0,0,10.68,11,19.79,19.79,0,0,0,11.38-1.12A24.54,24.54,0,0,0,80,138.34a39.74,39.74,0,0,0,7.85-14.55,75.91,75.91,0,0,0,2.63-15.56c.2-2.09.35-4.18.49-6.27a.88.88,0,0,1,.51-.77l2.59-1.47c5.7-3.28,11.3-6.73,16.69-10.51l3-2.09c.22-.15.46-.39.69,0a12.78,12.78,0,0,0,2.25,2.71,1.61,1.61,0,0,1-.7.52,35.49,35.49,0,0,0-3.52,2.18,30.77,30.77,0,0,0-13.65,25.81,29.21,29.21,0,0,0,.64,6.66,28.11,28.11,0,0,0,8.46,15.34,23.33,23.33,0,0,0,6.72,4.34,26.16,26.16,0,0,0,15,1.64,23.48,23.48,0,0,0,12.59-6.56,24.06,24.06,0,0,0,5.14-7.36,21.35,21.35,0,0,0,2-8,24.54,24.54,0,0,0-1.47-9.52,18.18,18.18,0,0,0-4.74-7.29M71.65,75.42a39.45,39.45,0,0,1,6.76-15,13.43,13.43,0,0,1,2.89-2.94,4.08,4.08,0,0,1,2.44-.89A2.34,2.34,0,0,1,86.21,59a8.13,8.13,0,0,1-.45,3,22.92,22.92,0,0,1-2.48,5,43,43,0,0,1-5.53,7,31.73,31.73,0,0,1-5.41,4.6,2.23,2.23,0,0,1-1,.48,11,11,0,0,1,.36-3.69m11,33a81.9,81.9,0,0,1-3.29,13.92,35.7,35.7,0,0,1-4.9,9.82,17.42,17.42,0,0,1-5.87,5.26,12.85,12.85,0,0,1-6.71,1.5,5.41,5.41,0,0,1-5.23-4.69,11.85,11.85,0,0,1,.7-6.18,23.36,23.36,0,0,1,5-7.81c4.7-5.09,10.37-8.9,16.37-12.26,1.09-.61,2.2-1.16,3.3-1.73a1.82,1.82,0,0,1,.87-.31,13.35,13.35,0,0,1-.28,2.48M119.1,73.68a26.07,26.07,0,0,1,5.39-14.17,8.33,8.33,0,0,1,3-2.53,2.7,2.7,0,0,1,2.32-.14,2.14,2.14,0,0,1,1.35,1.92,6.94,6.94,0,0,1-.89,3.57,28.46,28.46,0,0,1-3.49,5.22,63,63,0,0,1-7,7.28,1.78,1.78,0,0,1-.71.44,3.57,3.57,0,0,1,0-1.59"/></g></g></svg>