<svg id="Camada_1" data-name="Camada 1" xmlns="http://www.w3.org/2000/svg" xmlns:xlink="http://www.w3.org/1999/xlink" viewBox="0 0 514.96 189.39"><defs><style>.cls-1{fill:none;}.cls-2{clip-path:url(#clip-path);}.cls-3{fill:#1d1d1b;}</style><clipPath id="clip-path"><rect class="cls-1" width="514.96" height="189.39"/></clipPath></defs><title>Prancheta 9</title><g class="cls-2"><g class="cls-2"><path class="cls-3" d="M255.59,178.86a319.93,319.93,0,0,1-92.65-14.18,344.22,344.22,0,0,1-47.65-18.74,289.23,289.23,0,0,1-52.21-32.12c-.26-.2-.52-.39-.75-.6a1.52,1.52,0,0,1-.45-2,1.49,1.49,0,0,1,1.93-.66c1,.29,1.9.66,2.85,1a691,691,0,0,0,77,24,494,494,0,0,0,59.27,10.94c9.42,1.13,18.87,1.95,28.34,2.56,13.84.89,27.69.76,41.53.47,10.86-.23,21.7-1,32.53-2.06a461.75,461.75,0,0,0,75.9-13.41A403.51,403.51,0,0,0,446,111.2c1.05-.48,2.32-1.46,3.28-.06s-.41,2.23-1.26,3a193.87,193.87,0,0,1-29.83,21.93c-29.9,18.17-62.27,29.87-96.54,36.51a328.35,328.35,0,0,1-38.77,5.15c-6.93.5-13.86.91-20.81,1-2.06,0-4.13.27-6.48.17"/><path class="cls-3" d="M49.13,103.18c-6.47,0-12.94,0-19.41,0a28.37,28.37,0,0,1-4.12-.33c-4.29-.68-6.8-3.5-7.25-8-.18-1.9-.26-3.8-.3-5.71q-.57-24.72-.21-49.44a120.08,120.08,0,0,1,.47-12.85c.61-5.06,3.33-7.59,8.44-7.62,8.27,0,16.55.07,24.83-.05,10.07-.15,20.15-.33,30.23-.19,7.59.1,15.15.65,22.51,2.7,7.86,2.19,15.16,5.5,21.37,10.89,7.67,6.66,11.72,15.21,12.78,25.18,1.86,17.69-9.71,32.2-24.49,38.11a102.8,102.8,0,0,1-28.76,6.49c-6,.57-12.06.69-18.1.84s-12,0-18,0m3.7-42.65h0c0,4.13,0,8.27,0,12.4C52.91,76.7,54.2,78,58,78c7.8,0,15.59.06,23.38,0a27.42,27.42,0,0,0,9.22-1.54A11.23,11.23,0,0,0,98,68a34,34,0,0,0,.53-10.59C98,50.22,94.09,45.69,87.26,44a30.25,30.25,0,0,0-7.41-.84q-10.74,0-21.47,0c-3.94,0-5.52,1.58-5.55,5.49s0,8,0,11.92"/><path class="cls-3" d="M265.86,60.88c0-9.81-.07-19.62,0-29.43a40.3,40.3,0,0,1,.5-7.91c.58-2.8,1.76-3.91,4.54-4.38a20.15,20.15,0,0,1,3-.27q12.82,0,25.64,0h.95c4.53.19,6.35,2,6.38,6.53.06,8,0,15.91,0,23.86,0,1.25-.29,2.85,1.13,3.37s2.33-.77,3.16-1.7Q323.17,37.71,335,24.42c3.21-3.61,7-5.66,12-5.59,7.85.11,15.71.05,23.57.05a9.37,9.37,0,0,1,3.44.52c1.49.58,1.83,1.33,1.3,2.86a7.54,7.54,0,0,1-2,2.8l-22,22.3a22,22,0,0,0-2.64,3c-1.71,2.5-1.78,4.72.13,7.17s4,4.7,6,7q12.68,14.39,25.36,28.75c1.12,1.27,2.24,2.55,3.37,3.81a6.2,6.2,0,0,1,1.25,1.83c.86,2.18.22,3.47-2,4.07a16.29,16.29,0,0,1-4.12.24c-12.16,0-24.31,0-36.46,0-3.89,0-6.76-1.78-9.12-4.71Q322.58,85.64,312.14,72.8c-1-1.23-2-2.84-3.86-2.18S307,73.1,307,74.52c0,6.68,0,13.36,0,20,0,.68,0,1.38,0,2.06-.27,4.3-2.32,6.48-6.64,6.54-9.07.1-18.15.12-27.22,0-4.65-.07-6.75-2.49-6.95-7.15-.5-11.71-.19-23.42-.24-35.13"/><path class="cls-3" d="M239.43,103.21c-5.67,0-11.35,0-17,0-4.11,0-6.3-1.48-7.85-5.23-.22-.54-.51-1.06-.7-1.6-1.12-3.08-3.47-4.26-6.57-4.26-12.1,0-24.19-.05-36.29,0a7.75,7.75,0,0,0-7.69,5.16c-1.66,4.23-4.75,6-9.16,5.93-5.36-.07-10.72,0-16.08,0a14.25,14.25,0,0,1-2.68-.27c-2.4-.49-3.23-1.83-2.41-4.17,1.23-3.51,3.2-6.69,4.93-10C143.55,78.18,149.31,67.62,155,57q8.12-15.13,16.15-30.3c3-5.74,8.16-7.76,14.28-7.81,8.59-.07,17.19.12,25.78-.11,4-.11,6.5,1.6,8.34,4.88,3,5.27,6,10.48,9,15.75q14.2,25.49,28.36,51,1.81,3.27,3.51,6.6,3.12,6.17-3.76,6.18c-5.73,0-11.46,0-17.19,0M191.2,71.32c2.87-.15,6.58.29,10.27-.19,1.8-.23,2.22-1,1.81-2.75a8.53,8.53,0,0,0-.39-1.21q-4.77-11.36-10.38-22.31c-.9-1.75-2.25-1.75-3.17,0-3.88,7.41-7.89,14.75-11.45,22.32-1.14,2.43-.06,4.09,2.62,4.12,3.28,0,6.57,0,10.69,0"/><path class="cls-3" d="M435.56,18.82a72.43,72.43,0,0,1,38.09,10.84c7.35,4.65,13.41,10.6,17,18.69,5.28,12.1,3.3,23.36-4.64,33.59-7.54,9.7-17.8,15.43-29.45,18.7-19.44,5.46-38.44,4.22-56.68-4.69-8.44-4.12-15.59-9.93-20.34-18.19-7-12.18-6.23-24.18,1.76-35.57,6.94-9.89,16.89-15.7,28.17-19.46a81.37,81.37,0,0,1,26.14-3.91m23.31,42.54a18.07,18.07,0,0,0-3.75-11.6c-9.15-12.4-28.83-13.64-39.79-2.54a19.81,19.81,0,0,0,1.37,29.55,27.42,27.42,0,0,0,30.56,2.93c7.17-4,11.43-9.91,11.61-18.34"/></g></g></svg>