<svg id="Camada_1" data-name="Camada 1" xmlns="http://www.w3.org/2000/svg" xmlns:xlink="http://www.w3.org/1999/xlink" viewBox="0 0 992.13 198.43"><defs><style>.cls-1{fill:none;}.cls-2{clip-path:url(#clip-path);}.cls-3{fill:#1d1d1b;}</style><clipPath id="clip-path"><rect class="cls-1" width="992.13" height="198.43"/></clipPath></defs><title>Prancheta 2</title><g class="cls-2"><g class="cls-2"><path class="cls-3" d="M731.23,70.54c-1.13,2-.79,3.49-.79,4.88,0,23.64-.11,47.28,0,70.92,0,3.55-1,4.95-4.67,4.79-5.62-.24-11.26-.14-16.89,0-2.83.06-4.1-.8-4-3.89.41-21,.44-42,1.09-63,.27-8.47.26-16.93.49-25.4.17-6.49,3.37-10.19,9.85-11.08,7-1,14.12-.63,21.18-.35,6.32.25,10.18,4.06,12.54,9.73q11.44,27.45,23,54.84c.48,1.15.63,2.56,2.3,3.51,2.44-5.91,4.86-11.7,7.22-17.51q8.31-20.42,16.56-40.84c2.67-6.59,6.64-9.29,13.76-9.32,5.76,0,11.51-.05,17.26,0,8.19.07,12.26,4,12.4,12,.32,19.21.55,38.43.87,57.64.16,9.78.34,19.56.71,29.34.12,3.3-1.08,4.46-4.34,4.36q-8.44-.26-16.9,0c-3.29.11-4.34-1.12-4.32-4.38.09-23.64,0-47.29,0-70.93,0-1.51.25-3.08-.59-4.71-1.53.67-1.62,2.07-2.08,3.18C808.23,93,800.52,111.6,793,130.35c-2,5.06-5.47,7.52-10.73,8.13a60.16,60.16,0,0,1-16.47-.22,12,12,0,0,1-10.05-8c-7.49-18.87-15.28-37.63-23-56.42-.39-1-.9-1.86-1.58-3.27"/><path class="cls-3" d="M122,97.18c3.52,1.83,6.57,3.23,9.09,5.48,9.47,8.46,10.9,19,7.34,30.41-3.52,11.25-12.06,16.74-23.45,17.41a447.39,447.39,0,0,1-57.08,0c-15.73-1.08-26.34-13-26.4-28.61-.09-23.27,0-46.54-.08-69.81,0-3.17.85-4.4,4.24-4.38,24.56.12,49.12,0,73.68.13,10.08.07,18.25,4.21,22.93,13.39,4.86,9.53,4.54,19.1-1.29,28.26-2.1,3.3-5.35,5.38-9,7.75m-40.4,9.51v0H61.08c-.12,0-.24,0-.36,0-3-.31-4.1,1.06-3.95,4,.17,3.46-.09,6.94.17,10.38.52,6.91,5.32,11.82,12,11.93,10.91.18,21.82.24,32.72,0,7.84-.19,12.09-5.09,12-13.06-.06-8.35-4.23-12.91-12.32-13.11-6.59-.17-13.18,0-19.77,0m-1-40.9c-6.7,0-13.4.06-20.1,0-2.56,0-3.72.9-3.67,3.54.09,5.36.07,10.73,0,16.09,0,2.27.89,3.23,3.21,3.18,4.3-.09,8.61,0,12.92,0,8.85,0,17.71.14,26.56-.07,7-.17,10.75-4.59,10.59-11.7s-3.93-10.9-10.86-11c-6.22-.07-12.44,0-18.66,0"/><path class="cls-3" d="M151,99.39c0-15.75.08-31.51-.06-47.26,0-3.46,1.16-4.5,4.58-4.48,23.24.12,46.49,0,69.74.08,16.87,0,28.07,9.83,30.11,26.15,2,16.16-7.18,29.62-23,33.59a41.74,41.74,0,0,1-7.41,1.33c-2.91.18-3,1-1.32,3.08q13.41,16.81,26.7,33.73c1.14,1.44,3.53,2.93,2.75,4.62s-3.48.78-5.32.8c-6.59.09-13.18-.08-19.77.09a7.83,7.83,0,0,1-7.24-3.58c-8.47-11.72-17.21-23.24-25.65-35-2-2.75-4.13-4-7.48-3.66a45.2,45.2,0,0,1-7.54,0c-2.9-.2-3.69,1.06-3.67,3.79.11,11.33,0,22.67.11,34,.05,3.26-1,4.5-4.29,4.4-5.63-.17-11.27-.16-16.9,0-3.27.09-4.38-1.21-4.36-4.44.12-15.76.06-31.51.05-47.27m48.77-33.6c-6.46,0-12.93.09-19.39-.05-2.9-.06-4.09.87-4,3.9.18,5.72.21,11.45,0,17.16-.13,3.25,1.14,4,4.19,4,11.72-.13,23.46-.06,35.18,0a19.09,19.09,0,0,0,5.32-.68c6.41-1.84,9.23-6.77,8.31-14.6-.7-5.93-4.88-9.58-11.3-9.67-6.1-.08-12.2,0-18.31,0"/><path class="cls-3" d="M419.66,132.48h28.06a19.16,19.16,0,0,0,8.4-1.57,9.22,9.22,0,0,0,5.55-8.16c.28-3.71-1.52-6.39-4.53-8.39-3.31-2.19-7.16-2.67-10.95-3.15-10.22-1.31-20.47-2.31-30.67-3.76-10-1.42-19.11-4.68-25.28-13.37-13.29-18.73-1.88-43.86,21-46.34A99.29,99.29,0,0,1,422,47.19c17.27,0,34.53.07,51.8,0,3.38,0,4.85,1.08,4.63,4.55a76.1,76.1,0,0,0,0,9.31c.18,3.23-1,4.36-4.36,4.33-16.19-.14-32.37-.09-48.56,0a55.41,55.41,0,0,0-8.22.72c-4.19.65-7.26,3.52-7.74,6.94-.61,4.37,1,7.67,5.08,9.75,6.1,3.16,12.88,3.52,19.51,4.44,9,1.25,18.11,1.93,27,4.2,2.09.53,4.17,1.12,6.21,1.82,15.22,5.23,21.76,15.86,19.82,32.16-1.65,13.9-12.37,24.09-27.1,25.19-17.59,1.31-35.27-.39-52.83.78-10.11.67-15.94-2.06-19.14-11.94-2.31-7.14-3.12-6.89,4.62-6.89h27"/><path class="cls-3" d="M370.4,151.06c-3.59,0-7.19-.05-10.78,0a4.2,4.2,0,0,1-4.41-2.9c-2-4.74-4.2-9.37-6.13-14.13a4,4,0,0,0-4.28-2.91q-24.63.1-49.26,0a3.82,3.82,0,0,0-4.1,2.66c-1.91,4.76-4,9.45-6,14.19-.81,2-2,3.12-4.26,3.1-7.07-.07-14.14-.06-21.21,0-3.16,0-3.3-1.25-2.11-3.76q14.85-31.22,29.57-62.5c4.69-9.94,9.4-19.87,14-29.83,1.74-3.75,4.51-6.31,8.56-6.92a73.85,73.85,0,0,1,21.1,0,10.74,10.74,0,0,1,8.46,6.5q21.93,46.52,43.95,93c1.37,2.88.39,3.63-2.37,3.58-3.6,0-7.19,0-10.79,0M320.28,68.75l-18.41,40.8c-.15.33-.27.67-.45,1-1.13,2-.18,2.46,1.72,2.46,11.26,0,22.52-.06,33.78,0,2.62,0,2.75-.85,1.78-3-2.7-5.85-5.25-11.78-7.87-17.66-3.38-7.61-6.78-15.2-10.55-23.65"/><path class="cls-3" d="M859,99.38q0-23.46,0-46.92c0-4.65.11-4.74,4.89-4.75,21.45,0,42.91.31,64.36-.09,18.64-.36,30.75,11.43,32.29,26.56,1.91,18.77-8.62,32.15-27.19,35.52-4.42.8-8.83.66-13.26.67-10.54,0-21.09.11-31.64-.05-3.13,0-4.18,1-4.13,4.1.16,10.62.07,21.25.06,31.87,0,4.63-.14,4.76-4.9,4.77-5.4,0-10.79-.11-16.18,0-3.29.1-4.38-1.23-4.35-4.45.11-15.76.05-31.51.05-47.27m47-33.58c-6.11,0-12.22,0-18.33,0-2.24,0-3.27.8-3.24,3.15.08,6.8.06,13.6,0,20.4,0,1.92.71,2.87,2.73,2.86,12,0,24,.22,35.93-.16,7.77-.25,12.47-6.11,12.15-14-.31-7.43-5.3-12.16-13.08-12.26-5.39-.08-10.78,0-16.17,0"/><path class="cls-3" d="M644.39,47.71c15.22,0,30.45.09,45.67-.07,3.51,0,4.72,1.17,4.43,4.55-.22,2.61,0,5.25,0,7.88,0,5.19,0,5.2-5.09,5.21h-64c-5.77,0-5.77,0-5.77,5.91q0,19.52,0,39c0,14.93,7.7,22.66,22.84,22.74,15.94.08,31.89,0,47.83,0,4.7,0,4.77.09,4.8,4.84q0,4.11,0,8.24c0,4.72-.27,5-5.16,5q-28,0-56.1,0a59.58,59.58,0,0,1-11.77-1.2c-17.29-3.44-27.81-16.14-27.82-33.65q0-31.87,0-63.76c0-4.66.11-4.75,4.88-4.76h45.31"/><path class="cls-3" d="M536.66,47.71c14.63,0,29.25.11,43.87-.08,3.72-.05,4.89,1.21,4.61,4.75a74.29,74.29,0,0,0,0,9.67c.15,2.85-1.1,3.78-3.81,3.76-9.11-.08-18.22,0-27.33,0-4.9,0-4.92,0-4.92,5v75.22c0,4.91-.09,5-5,5-5.27,0-10.55-.13-15.82.05-3.41.12-4.6-1.16-4.59-4.58.1-25.07.06-50.15,0-75.22,0-5.51,0-5.52-5.56-5.52-8.75,0-17.5-.08-26.25,0-3.08,0-4.35-1.13-4.19-4.23.16-3.34.16-6.69,0-10-.14-3,1.14-3.91,4-3.89,15,.1,30,0,44.94,0"/><path class="cls-3" d="M655.76,87.85c8.25,0,16.51.09,24.76,0,3,0,4,1.07,3.9,4-.17,4.16-.11,8.34,0,12.51,0,2.25-.86,3.24-3.16,3.24-13.28,0-26.56.17-39.83-.12-7.18-.16-10.54-5.45-12.75-11.41-2.73-7.4-2.14-8.15,5.58-8.15h21.53"/></g></g></svg>