<svg id="Camada_1" data-name="Camada 1" xmlns="http://www.w3.org/2000/svg" xmlns:xlink="http://www.w3.org/1999/xlink" viewBox="0 0 626.09 178.43"><defs><style>.cls-1{fill:none;}.cls-2{clip-path:url(#clip-path);}.cls-3{fill:#1d1d1b;}</style><clipPath id="clip-path"><rect class="cls-1" width="626.09" height="178.43"/></clipPath></defs><title>Prancheta 4</title><g class="cls-2"><g class="cls-2"><path class="cls-3" d="M233.67,100.76c0,34.34-26.68,61.41-60.26,61.09-32.67-.32-58.65-27.4-58.61-61.08s27.44-61.47,60.55-61.12c33.27.35,58.31,26.59,58.32,61.11m-61.14,28c15.14,1,25.66-8.89,27.07-25.36,1.38-16-9.25-29.83-23.55-30.62-15.18-.85-25,8.13-26.21,24-1.5,19.35,6.74,31,22.69,32"/><path class="cls-3" d="M86.78,11.92c11.76.08,21-.56,28.79,4.88S126.31,29.52,123,38.91c-3.28,9.19-9.59,9.07-18,7.78-35.09-5.42-55.07,8.08-56.72,37.4-1.79,31.67,19.06,49.69,50.21,43.39,11.32-2.29,22.73,5.92,24,18.85,1.15,11.42-9.35,11.31-16.48,13-43.32,10.08-79.49-8.3-89.78-45.16C4,70.24,23.49,29.24,63.09,15.5a68,68,0,0,1,23.69-3.58"/><path class="cls-3" d="M347.47,116.72c0,8,.07,15.94,0,23.9-.16,17.23-11.34,24.58-27.26,18.19-6.67-2.68-6.28-8.34-6.33-13.73-.15-15.93.11-31.87-.13-47.8-.25-16.67-6.87-24.57-19.69-24.17-12.39.4-18.5,7.79-18.78,23.56-.29,15.93-.36,31.87-.1,47.79.2,11.84-5.8,15.45-16.79,15.3-10.48-.16-19.25-1-18.83-14.66.65-20.86-2.16-41.87,1.76-62.58,5.34-28.28,28.62-45.25,57.59-42.69,31.09,2.75,48,20.61,48.53,51.5.16,8.47,0,16.93,0,25.39"/><path class="cls-3" d="M563.1,85.7c0,9,.26,17.93,0,26.88-1,31-22.49,50.31-55.13,49.85-31.54-.43-50.12-18.92-50.39-50.36-.14-16.93-.21-33.86.06-50.79.23-14.1,7.42-21.78,19.27-21.1,13,.75,14.34,9.73,14.2,20.08-.2,15.93-.31,31.87.12,47.79.39,14.51,7,21.12,19.59,20.83,13.42-.3,18.21-8.69,18.48-20.56.36-16.43.17-32.86.31-49.29.1-12.29,7.28-18.16,18.7-18.92,8.52-.57,14.63,3,14.72,12.73.09,10.95,0,21.9,0,32.86h.09"/><path class="cls-3" d="M405.06,39.09c11.14-.22,21.54.84,30.94,6.11,7.31,4.09,10.67,10.4,7.92,18.81-2.82,8.63-9.39,9.21-16.93,7.37-10.29-2.51-20.76-2.21-31.21-1.71-4.41.22-10,.36-10,6.4,0,5.43,5.08,6.74,9.6,7.64,9.75,2,19.58,3.55,29.26,5.81,15.72,3.68,25.38,13.22,26.89,29.8,1.37,15.11-8,30.28-22.93,36.91-22.48,10-44.88,6-67-1.27-9.49-3.1-7.07-10.48-5-17.38,2.17-7.29,5.2-13.06,14.62-10.6,9.61,2.51,19.22,5.43,29.35,4.82,6.28-.38,15.4,1.1,16.16-6.83.9-9.45-9.24-8.35-15.51-10-7.7-2-15.69-2.81-23.35-4.91-14.37-3.95-23.1-13.26-24.61-28.46-1.55-15.43,5.7-28.92,19.16-35.78a63.28,63.28,0,0,1,32.72-6.77"/><path class="cls-3" d="M607.4,85.43c0,19.45-.29,38.91.11,58.35.26,12.71-6.06,16.12-17.67,16-11.21-.08-18.2-2.53-18.09-15.61.32-37.4.08-74.81.17-112.22,0-8.9,2.05-16.87,11.46-20.8,13-5.45,23.41.33,23.81,14.4.58,19.93.15,39.9.15,59.85h.06"/></g></g></svg>