<svg id="Camada_1" data-name="Camada 1" xmlns="http://www.w3.org/2000/svg" xmlns:xlink="http://www.w3.org/1999/xlink" viewBox="0 0 752.87 181.57"><defs><style>.cls-1{fill:none;}.cls-2{clip-path:url(#clip-path);}.cls-3{fill:#1d1d1b;}</style><clipPath id="clip-path"><rect class="cls-1" width="752.87" height="181.57"/></clipPath></defs><title>Prancheta 5</title><g class="cls-2"><g class="cls-2"><path class="cls-3" d="M311.69,99.17a28.76,28.76,0,0,0-10.89-7.09l-2.25-.89c.19-.2.26-.33.37-.39.48-.25,1-.48,1.44-.73,8.86-4.65,13.51-11.8,13.14-22-.45-12.42-6.9-21.19-18.69-25.27a43.75,43.75,0,0,0-14.25-2.38q-26.13,0-52.28,0c-.53,0-1.06.06-1.73.1V146.26c.58.06,1,.15,1.49.15,18.57,0,37.14.06,55.71,0a38,38,0,0,0,22-6.77c9.07-6.36,13.74-14.91,12.46-26.22a24,24,0,0,0-6.55-14.22M253.52,62.22c.73,0,1.32-.09,1.92-.09,6.19,0,12.38,0,18.57,0a14,14,0,0,1,3.59.44,9.13,9.13,0,0,1,6.87,6.93,9.31,9.31,0,0,1-3,9.69,10.28,10.28,0,0,1-7,2.8c-6.79.08-13.59,0-20.39,0a2.79,2.79,0,0,1-.62-.17Zm34.66,55.12a8.27,8.27,0,0,1-4.79,5.15A16.33,16.33,0,0,1,278,124c-7.72.21-15.45.18-23.18.24A5.1,5.1,0,0,1,254,124V103.41a12.88,12.88,0,0,1,1.52-.19q9.57,0,19.15,0a20.57,20.57,0,0,1,7.88,1.39,9.63,9.63,0,0,1,5.64,12.72"/><path class="cls-3" d="M734.66,40.39l-.13-.14h-29v2.49q0,16.95,0,33.91c0,.83-.11,1.67-.16,2.52h-34V76.51q0-16.86,0-33.71c0-.84-.1-1.69-.15-2.56H642.41c-.39,2.37-.3,104.26.08,105.77h28.84v-2.67q0-18.27,0-36.53c0-.83.13-1.67.19-2.47h34V146H734.7a3.31,3.31,0,0,0,.18-.71q0-52,0-103.94a4.29,4.29,0,0,0-.11-.79c0-.06-.07-.11-.12-.16"/><path class="cls-3" d="M428.11,75.1c-.15-.55-.3-1.1-.47-1.64-.26-.87-.54-1.73-.84-2.59-4.72-13.39-13.18-23.48-26.41-29.12a54.73,54.73,0,0,0-30.85-3.36C354.15,40.91,342.61,49,335,62.61a59.52,59.52,0,0,0-7.1,24.81,66.85,66.85,0,0,0,3.85,29.14c4.94,13.06,13.52,22.83,26.57,28.25,10,4.16,20.48,4.84,31.09,2.94,15.53-2.77,26.93-11.3,34.19-25.27a53.56,53.56,0,0,0,2.75-6.17,65.72,65.72,0,0,0,3.88-23.44,66.66,66.66,0,0,0-2.13-17.77m-27.84,33.7c-2.59,6.22-6.65,11.08-13.17,13.39-9.71,3.44-22.54,1.15-28.49-11.55-3-6.43-3.84-13.25-3.45-20.26a38,38,0,0,1,3.12-13.68c3.23-7.11,8.37-12,16.29-13.33,12.22-2,21.9,3.74,26.16,15.41a45.4,45.4,0,0,1,2.39,15.46,40.08,40.08,0,0,1-2.85,14.56"/><path class="cls-3" d="M427.64,73.46c.17.54.32,1.09.47,1.64-.15-.55-.3-1.1-.47-1.64"/><path class="cls-3" d="M510.25,87.92a52.38,52.38,0,0,0-11.93-4.25c-5.56-1.29-11.16-2.4-16.72-3.69a27.56,27.56,0,0,1-9-3.49c-4.88-3.18-4-9.16-1.35-12a11.9,11.9,0,0,1,4.35-2.84,22.32,22.32,0,0,1,11.53-1,33,33,0,0,1,17.26,8.15c.45.39.91.76,1.46,1.21l17.4-16.51a16.18,16.18,0,0,1-2-1.41,50.11,50.11,0,0,0-14.08-9.65,58,58,0,0,0-22.27-5,53.5,53.5,0,0,0-23.08,3.83c-11.14,4.74-18.76,12.55-20.44,25s2.37,22.24,12.84,29.26a47.54,47.54,0,0,0,15.93,6.6c5.37,1.24,10.78,2.3,16.11,3.68a30,30,0,0,1,7.06,2.85c3.2,1.78,4.32,4.84,3.6,8.45-.66,3.32-2.81,5.42-5.69,6.88a19.62,19.62,0,0,1-9,2,34.8,34.8,0,0,1-22.94-8c-1.95-1.62-3.72-3.49-5.79-5.45q-8.78,8.11-17.51,16.21a6,6,0,0,0,.48.75c6,6.72,12.95,12.17,21.49,15.27a68.46,68.46,0,0,0,36,2.83,43.91,43.91,0,0,0,19.42-8.44,30.29,30.29,0,0,0,11-15.78,34.4,34.4,0,0,0,1.1-12.78c-1-10.36-5.93-17.93-15.24-22.64"/><path class="cls-3" d="M608.43,111.64c-.25.12-.33.13-.36.17l-2,2.76c-5.9,8.05-13.94,10.41-23.36,8.34-8.7-1.91-14.34-7.6-17.62-15.69a39.54,39.54,0,0,1-2.36-18.84,31.75,31.75,0,0,1,4.69-14.23,23.49,23.49,0,0,1,25.06-10.7,21.48,21.48,0,0,1,13,8.51c.69.9,1.36,1.81,2.11,2.82l22.23-14a3.18,3.18,0,0,0-.26-.7c-.88-1.19-1.74-2.4-2.66-3.55-5.41-6.72-11.83-12.13-20-15.26-10.48-4-21.32-4.46-32.16-2.22-18.3,3.78-30.28,15-36.35,32.49-3.76,10.85-4.21,22-2.29,33.25a55.45,55.45,0,0,0,10,24C554.84,140.5,566.49,147,581,148.6a68.27,68.27,0,0,0,17.49-.52,41.2,41.2,0,0,0,18.86-7.66,63.49,63.49,0,0,0,13.25-14c0-.08,0-.24,0-.52l-22.17-14.23"/><path class="cls-3" d="M107.52,13.25A80.28,80.28,0,1,0,187.8,93.32a80.07,80.07,0,0,0-80.28-80.07m73,82c-.91,39.71-34.1,71.89-74.14,71.36a73.11,73.11,0,1,1,2.27-146.2c39.58.67,72.81,33.74,71.87,74.84"/><path class="cls-3" d="M142,44.2a3.81,3.81,0,0,0-1.79-.8c-1.46-.11-2.93,0-4.57,0-.06,1-.15,1.76-.15,2.54,0,7.47,0,14.93,0,22.4,0,.85-.1,1.71-.16,2.65H79.84c0-9.34,0-18.38,0-27.59a23.25,23.25,0,0,1-2.68,0A7,7,0,0,0,71.93,45a60,60,0,0,0-23.57,59.37c3,16.11,11.49,28.77,24.68,38.37a3.67,3.67,0,0,0,1.77.84c1.59.12,3.19,0,5,0V141q0-11.3,0-22.6c0-.78.1-1.55.15-2.27,2.6-.46,53.75-.34,55.37.14,0,.8.11,1.66.11,2.52,0,7.46,0,14.93,0,22.4,0,.77.12,1.54.18,2.27,4.8.49,5,.44,8.39-2.16A59.52,59.52,0,0,0,166.17,80C162.7,65,154.4,53.18,142,44.2M72.41,131.81a3,3,0,0,1-.25.74c-23.63-19.81-23.16-58.92-.1-78a1.58,1.58,0,0,1,.15.12c.05,0,.12.09.12.15,0,.6.13,1.2.13,1.8q0,37.59,0,75.19m62.7-23.23H80V78.4H135.1c.51,1.73.51,28.39,0,30.18m10.22,22c-.55.58-1.15,1.13-1.74,1.67a4.24,4.24,0,0,1-.81.41V54.38c.75.6,1.26,1,1.7,1.39a50.71,50.71,0,0,1,14.91,26.92C163,101,158.1,117,145.33,130.56"/></g></g></svg>