<svg id="Camada_1" data-name="Camada 1" xmlns="http://www.w3.org/2000/svg" xmlns:xlink="http://www.w3.org/1999/xlink" viewBox="0 0 1002.88 233.22"><defs><style>.cls-1{fill:none;}.cls-2{clip-path:url(#clip-path);}.cls-3{clip-path:url(#clip-path-2);}.cls-4{fill:#1d1d1b;}</style><clipPath id="clip-path"><rect class="cls-1" width="1002.88" height="233.22"/></clipPath><clipPath id="clip-path-2"><rect class="cls-1" width="1002.88" height="233.22"/></clipPath></defs><title>Prancheta 3</title><g class="cls-2"><g class="cls-3"><path class="cls-4" d="M129.3,223.76H23.89c-4.12,0-4.13,0-4.13-4.18V10.11c0-4.25,0-4.26,4.39-4.26H235c4.25,0,4.25,0,4.25,4.14q0,104.87,0,209.72c0,4,0,4-4,4H129.3M160.61,115q0,44.11,0,88.24c0,3.32,0,3.34,3.21,2.1a98.55,98.55,0,0,0,39.94-28.21,94,94,0,0,0,22.66-55.76,93.34,93.34,0,0,0-6-40.33c-10.43-26.95-29.16-45.71-56-56.39-3.83-1.53-3.87-1.45-3.88,2.62V115M48.54,120.37c-5.46,0-9.33,0-13.2,0-2.79,0-3,.21-2.83,3.06.07,1.18.26,2.34.4,3.51,2.42,20.37,10.84,38,24.7,53a97.67,97.67,0,0,0,39.85,26.19,96.37,96.37,0,0,0,44.21,4.65c1.92-.23,3.82-.57,5.73-.89,2.2-.37,2.49-.75,2.33-3-.06-.93-.23-1.84-.29-2.76a75.59,75.59,0,0,0-7.8-28.75,93.06,93.06,0,0,0-23.4-30,103.68,103.68,0,0,0-46-22.94,95.45,95.45,0,0,0-23.71-2m-2.08-10.82A116.11,116.11,0,0,0,62.39,109,99.1,99.1,0,0,0,97,98.67a101.66,101.66,0,0,0,33.75-27.09c11.48-14.31,18.13-30.51,19-48.93.1-2-.06-2.31-2.05-2.7a94.61,94.61,0,0,0-33.82-.49C90.13,23.58,70.6,35,55.09,53.32A97,97,0,0,0,37.2,85.22a102.62,102.62,0,0,0-4.65,21.63c-.26,2.36.06,2.67,2.38,2.69,3.45,0,6.89,0,11.53,0"/><path class="cls-4" d="M293.1,99.89V63.34c0-3.66,0-3.67,3.62-3.67q30.27,0,60.53,0c.34,0,.68,0,1,0,2.2.08,2.5.31,2.53,2.49,0,4.21,0,8.41,0,12.61,0,2.61-.23,2.79-3,2.8q-17.4,0-34.8,0H315.7c-3.29,0-3.3,0-3.3,3.42q0,9.08,0,18.15c0,.42,0,.85,0,1.26.12,1.81.3,2,2.09,2.09,1.35.06,2.69,0,4,0H353.6c.75,0,1.51,0,2.27,0,1.58.12,1.94.39,2,2q.09,6.93,0,13.86c0,1.7-.37,2-2.16,2-1.35,0-2.69,0-4,0H316.32c-.67,0-1.35,0-2,0-1.24,0-1.89.52-1.89,1.79,0,5-.31,10.1.16,15.12.61,6.44,5.06,11,11.43,12a34.57,34.57,0,0,0,6,.49c9.34,0,18.67,0,28,0,.67,0,1.35,0,2,0,1.22,0,1.89.5,1.89,1.78,0,4.71,0,9.41,0,14.12,0,1.57-.38,1.82-2,1.95-.5,0-1,0-1.52,0-10.59,0-21.18,0-31.78,0a47.93,47.93,0,0,1-10.73-1.29c-12.07-2.86-19.13-10.57-21.76-22.54a47,47,0,0,1-1-10.26c0-11.26,0-22.52,0-33.78"/><path class="cls-4" d="M455.17,133.48H427.43c-2.36.07-2.78.55-2.34,2.94a19.46,19.46,0,0,0,4.83,9.82,20.89,20.89,0,0,0,10.28,6.06,32.72,32.72,0,0,0,14.73.33A25.43,25.43,0,0,0,467.45,146c1.85-1.7,1.89-1.7,3.67,0,2.79,2.67,5.55,5.38,8.33,8.06,1.34,1.3,1.4,1.49.08,2.82a39.9,39.9,0,0,1-15.73,10.21c-12.65,4.14-25.18,3.84-37.29-2-11.53-5.58-18-15.11-20.28-27.51a47.27,47.27,0,0,1,.35-19.28c3.78-16.23,13.89-26.32,30.05-30.15a41.13,41.13,0,0,1,27.14,2.35C475.19,95.65,482,104.64,485,116.7c1.16,4.63,1.1,9.32,1,14-.07,2.45-.36,2.73-2.84,2.74q-14,0-28,0m-9.28-13.76c5.88,0,11.76,0,17.63,0,2.59,0,3.13-.69,2.46-3.23a15.85,15.85,0,0,0-5.2-8.16c-9.24-7.85-23.15-5.81-30.79,1.75a16.1,16.1,0,0,0-4.16,6.81c-.68,2.24-.33,2.75,1.93,2.84.59,0,1.18,0,1.76,0h16.37"/><path class="cls-4" d="M682.5,127.49c-.36-18.7,14.25-35.91,34.43-39.58,12.69-2.31,24.45.11,34.86,7.81a39.68,39.68,0,0,1,16.3,27.38c3.06,21.91-11.91,42.14-34.18,46.16-15.43,2.78-29-1.12-40.14-12.4-7.65-7.78-11.35-17.31-11.27-29.37m42.82,25.08c13.49.39,24-10.51,24-23.84a23.8,23.8,0,0,0-23.76-24.18c-11.92-.09-23.88,8.66-23.95,24-.07,14.7,11.14,24.42,23.73,24.07"/><path class="cls-4" d="M812.22,115.93V94c0-.58,0-1.17,0-1.76,0-2.55.24-2.77,2.71-2.8,2.77,0,5.54,0,8.32,0,2,0,4,0,6,0s2.17.34,2.28,2.2c0,.76,0,1.52,0,2.27q0,20.3,0,40.59a25.1,25.1,0,0,0,.6,6c1.42,6,5,9.81,11.07,11.11a23.08,23.08,0,0,0,11-.19,13.42,13.42,0,0,0,9.92-9.79,27.51,27.51,0,0,0,1-7.72q0-20.41,0-40.84c0-3.64,0-3.64,3.63-3.65,4.37,0,8.75,0,13.12,0,2.34,0,2.61.28,2.62,2.63,0,15.47.16,30.93-.06,46.39-.19,13.72-8.47,24.66-21.5,29a45.27,45.27,0,0,1-31.13-.59,29.76,29.76,0,0,1-19.58-28c-.15-7.65,0-15.3,0-22.94Z"/><path class="cls-4" d="M932.88,112.24c1.65-2.25,3.24-4.4,4.81-6.56,3.41-4.69,6.86-9.35,10.2-14.08a4.59,4.59,0,0,1,4.18-2.22c5.13.1,10.25,0,15.38,0a8.51,8.51,0,0,1,1,0c1.42.13,1.66.54.82,1.73-1.79,2.53-3.65,5-5.5,7.53L945,124c-1.68,2.27-1.68,2.27,0,4.55q13.11,18.21,26.18,36.43c.5.7,1.6,1.38,1,2.36-.46.77-1.55.41-2.36.42-4.79,0-9.58-.09-14.37.06a5.12,5.12,0,0,1-4.82-2.43c-5.24-7.41-10.59-14.74-15.92-22.08-2.36-3.26-1.93-2.93-4.07,0-5.21,7.22-10.48,14.4-15.6,21.69a5.64,5.64,0,0,1-5.39,2.8c-4.79-.2-9.58,0-14.37-.07-.73,0-1.67.31-2.11-.42s.34-1.37.76-2q10.54-14.61,21.11-29.21c2-2.72,3.87-5.49,5.92-8.16a2.2,2.2,0,0,0,0-3.11c-2.39-3.14-4.68-6.37-7-9.54L897.4,92.87c-.2-.27-.42-.52-.6-.81-.41-.68-1.35-1.29-.8-2.18.43-.72,1.38-.45,2.11-.45,5,0,9.92.06,14.87-.05a4.8,4.8,0,0,1,4.44,2.22c4.44,6.22,9,12.36,13.51,18.52a7.07,7.07,0,0,0,2,2.12"/><path class="cls-4" d="M543.09,170c-18-.08-29.16-4.66-37.94-14.53a39.53,39.53,0,0,1-9.75-22.52,40.14,40.14,0,0,1,4.11-23.22c6.4-12.4,16.69-19.76,30.34-22.25a43.81,43.81,0,0,1,28.43,3.89,45.91,45.91,0,0,1,10.5,7.76c.92.87,1,1.65.13,2.57q-4.73,4.89-9.44,9.8a1.53,1.53,0,0,1-2.41.17c-.69-.62-1.41-1.2-2.14-1.77a25.51,25.51,0,0,0-23.77-4.63c-8.57,2.4-13.94,8.24-16,16.87-2.22,9.36-.14,17.69,7,24.41a22.38,22.38,0,0,0,14.39,5.92,26.3,26.3,0,0,0,19.92-6.86c1.87-1.67,1.92-1.59,3.6.18,2.71,2.87,5.46,5.71,8.18,8.56,1.77,1.85,1.75,2-.12,3.81-8.32,8.1-18.31,11.94-25,11.84"/><path class="cls-4" d="M580.81,100.47v-36c0-.68,0-1.35,0-2,.1-2.56.33-2.8,3-2.81q6.67,0,13.36,0c2.93,0,3.19.23,3.2,3.14,0,7.55,0,15.11,0,22.67,0,3.93,0,3.93,3.83,3.93,3.36,0,6.72,0,10.09,0,2.58,0,2.81.23,2.84,2.66q0,6.06,0,12.1c0,2.36-.26,2.59-2.62,2.62-3.95,0-7.9,0-11.85,0-2.44,0-2.57.14-2.58,2.57,0,7.55-.09,15.11,0,22.67a26.52,26.52,0,0,0,1.18,8.69c1.73,4.78,5.21,7.5,10,8.61a33,33,0,0,0,4,.53c1.94.19,2.16.31,2.2,2.27.07,3.11,0,6.22,0,9.33v1.76c0,4.68,0,4.76-4.78,4.5a43.13,43.13,0,0,1-14.47-3,26,26,0,0,1-14.25-14.21,38.2,38.2,0,0,1-2.93-13c-.79-13.17-.08-26.36-.35-37.06"/><path class="cls-4" d="M779.38,113.7V63.56c0-3.9,0-3.9,3.87-3.91,4.28,0,8.57,0,12.85,0,2.25,0,2.47.27,2.58,2.44,0,.67,0,1.34,0,2q0,49.64,0,99.26c0,5-.26,4.39-4.41,4.42-3.78,0-7.56,0-11.34,0-3.54,0-3.56,0-3.57-3.46,0-5.54,0-11.08,0-16.62v-34"/><path class="cls-4" d="M393.78,113.73q0,25.08,0,50.17c0,3.88,0,3.89-3.89,3.89-4.2,0-8.41,0-12.61,0-2.52,0-2.71-.24-2.79-2.73,0-.59,0-1.18,0-1.77q0-49.41,0-98.83c0-5.61.33-4.75,4.84-4.79,3.79,0,7.57,0,11.35,0,3,0,3.12.14,3.12,3.15q0,23.06,0,46.13v4.79"/><path class="cls-4" d="M652,98.76a24.31,24.31,0,0,1,5.32-5.67c6.07-4.49,13-5.68,20.32-5,2.25.2,2.58.64,2.6,2.87,0,4.45,0,8.9,0,13.36,0,2.27-.22,2.31-2.52,2.14-3.94-.29-7.89-.59-11.8.36a18.29,18.29,0,0,0-14.38,17c-.1,1.34-.09,2.69-.09,4q0,17.4,0,34.79c0,.59,0,1.17,0,1.76,0,3.3-.11,3.39-3.4,3.4q-6.3,0-12.61,0c-3.09,0-3.22-.13-3.22-3.32q0-20.55,0-41.09,0-14.88,0-29.75c0-.67,0-1.34,0-2,.11-1.78.37-2.15,2.06-2.17q7.57-.08,15.13,0c1.58,0,1.9.38,2,2s0,3.19,0,4.79c0,.82,0,1.63,0,2.45l.56.09"/></g></g></svg>