<svg id="Camada_1" data-name="Camada 1" xmlns="http://www.w3.org/2000/svg" xmlns:xlink="http://www.w3.org/1999/xlink" viewBox="0 0 766.96 148.7"><defs><style>.cls-1{fill:none;}.cls-2{clip-path:url(#clip-path);}.cls-3{fill:#fff;}.cls-4{fill:#1d1d1b;}</style><clipPath id="clip-path"><rect class="cls-1" width="766.96" height="148.7"/></clipPath></defs><title>Prancheta 8</title><g class="cls-2"><g class="cls-2"><path class="cls-3" d="M77.41,120.18l-1.25-1.35,54.65-69.47-.89-.78L57.7,107.11l-1.27-1.29Q87,68.94,117.55,32l-.87-.8L40.39,91.93l-1.21-1.2,61-74.31-.77-.63L31.08,70.91l-1.32-1.29L53.5,39Q65.34,23.71,77.15,8.4l-1-.9L28,41l-1.21-1.35L49.32,9.54C19.47,20.32,2.41,51.93,7.67,84.2c5,30.41,33.54,55.67,64,56.61,30.91.95,61.52-18.09,67.55-42.16l-30.37,22.7L107.73,120l33.36-47.7-.87-.72L77.41,120.18m573-24.39c4.5,8.76,11.62,12.08,18.93,14.79,16.51,6.12,33.83,7.18,51,5a76.66,76.66,0,0,0,27.6-9c14.46-8.28,13.8-25.22-.61-33.33-5.62-3.16-12-5.13-18.11-7.27-11.5-4-23.27-7.34-34.55-11.89-3.09-1.25-6.58-5.84-6.6-8.91,0-2.31,4.89-5.66,8.21-6.78,10.48-3.57,20.82-1.54,28.88,5.57C735.53,53,747,48.41,758.44,48.52c-4.27-4.34-8.67-8.26-13.72-11-17.1-9.3-35.74-11-54.68-8.94C677.09,30,665,34.31,655,43.27c-6.82,6.15-7.59,13.82-1.58,20.66,3.11,3.53,6.77,7.3,11,9,11.25,4.54,22.89,8.12,34.45,11.87,6,1.94,12.43,2.72,18,5.41,3.21,1.55,7.14,6,6.92,8.92s-4.65,6.84-8.06,8c-12.88,4.57-24.83,2.72-35-7.29-1.84-1.82-4.5-3.74-6.91-3.9-7.38-.51-14.81-.19-23.45-.19M215.77,28.16c5.54,5.27,3.25,9.15.72,13.48-13.14,22.49-26.06,45.11-39,67.69-1.13,2-2.1,4-3.27,6.26h46c-6.15-4.59-3.62-8.21-1.27-12.09,8-13.18,15.81-26.46,23.71-39.7,3.18-5.34,6.4-10.66,10.19-17,2.14,3.65,3.69,6.19,5.12,8.79,10.22,18.65,20.35,37.34,30.72,55.91,1.1,1.95,3.39,4.11,5.45,4.49,3.89.71,8,.2,12.27.2a11.88,11.88,0,0,0-.52-2.75Q283.66,72.2,261.31,31c-.79-1.44-3.35-2.69-5.12-2.72-12.86-.23-25.73-.13-40.42-.13m345.7,87.6c-4.84-5.07-2.52-9,0-13.2,9.93-16.32,19.61-32.79,29.42-49.17,1.15-1.91,2.52-3.68,4.22-6.16,1.67,2.83,2.81,4.64,3.84,6.52,10.53,19.2,21,38.46,31.67,57.59,1.12,2,3.31,4.29,5.34,4.67,3.94.74,8.12.22,13.16.22-1.32-2.75-2.16-4.67-3.15-6.52C634.64,88.5,622.2,67.76,612.21,45.92c-6.52-14.25-14.86-20.57-30.59-18-7.26,1.2-14.88.21-24.19.21,6,5,4,8.65,1.72,12.62Q539.35,74.83,519.81,109c-1.15,2-2.14,4.06-3.53,6.72ZM295.7,40.67c10.11,0,20.13.25,30.14-.1,5.32-.19,7.18,1.37,7.1,6.91-.3,20.39-.12,40.79-.12,61.19v7h35.95v-7.44c0-20,.22-39.94-.14-59.9-.11-5.89,1.95-7.58,7.48-7.33,7.19.32,14.41-.07,21.61.1,4.24.1,5.56-1.69,5.82-5.79.37-6-1.76-7.88-7.8-7.83-30.34.25-60.69.11-91,.11-10.78,0-10.79,0-9.83,10.91a12.82,12.82,0,0,0,.83,2.17M415.82,28.19v87.34h87.49V103.41H450.63c0-23.83.08-46.81-.16-69.78,0-1.83-2.28-5.14-3.6-5.2-10.19-.44-20.4-.24-31.05-.24"/><path class="cls-4" d="M77.41,120.18l62.81-48.57.87.72L107.72,120l1.16,1.32,30.37-22.7c-6,24.07-36.64,43.11-67.55,42.16-30.49-.94-59.06-26.2-64-56.61C2.41,51.93,19.47,20.32,49.32,9.54L26.74,39.62,28,41,76.18,7.5l1,.9Q65.33,23.7,53.5,39L29.76,69.62l1.31,1.29L99.45,15.79l.77.63-61,74.31,1.21,1.2,76.29-60.69.87.8Q87,68.94,56.43,105.82l1.27,1.29,72.22-58.53.89.78L76.16,118.83l1.25,1.35"/><path class="cls-4" d="M650.4,95.79c8.65,0,16.08-.32,23.46.19,2.4.16,5.07,2.08,6.91,3.9,10.13,10,22.08,11.86,35,7.29,3.41-1.2,7.84-5.1,8.06-8s-3.71-7.37-6.92-8.92c-5.56-2.69-12-3.47-18-5.41-11.56-3.75-23.2-7.33-34.45-11.87-4.21-1.7-7.87-5.47-11-9-6-6.84-5.24-14.51,1.58-20.66,9.92-9,22.06-13.29,35-14.69,18.94-2.06,37.58-.36,54.68,8.94,5,2.74,9.45,6.66,13.72,11C747,48.41,735.53,53,725.15,43.9c-8.06-7.11-18.4-9.14-28.88-5.57-3.32,1.13-8.23,4.47-8.21,6.78,0,3.07,3.51,7.66,6.6,8.91,11.28,4.55,23,7.87,34.55,11.89,6.14,2.14,12.49,4.11,18.1,7.27,14.42,8.11,15.08,25,.62,33.33a76.66,76.66,0,0,1-27.6,9c-17.16,2.23-34.48,1.17-51-5-7.31-2.71-14.43-6-18.94-14.79"/><path class="cls-4" d="M215.77,28.17c14.69,0,27.56-.11,40.42.12,1.77,0,4.33,1.28,5.12,2.72q22.45,41.13,44.52,82.47a11.88,11.88,0,0,1,.52,2.76c-4.25,0-8.38.5-12.27-.21-2.06-.38-4.35-2.54-5.45-4.49-10.37-18.57-20.5-37.26-30.72-55.9-1.43-2.61-3-5.15-5.12-8.8-3.79,6.3-7,11.62-10.19,17C234.7,77,226.88,90.32,218.89,103.5c-2.35,3.88-4.88,7.5,1.27,12.09h-46c1.17-2.26,2.14-4.3,3.27-6.26,13-22.58,25.89-45.2,39-67.69,2.53-4.33,4.82-8.21-.72-13.47"/><path class="cls-4" d="M561.47,115.76H516.28c1.39-2.66,2.38-4.73,3.53-6.72q19.62-34.16,39.34-68.26c2.3-4,4.24-7.59-1.72-12.62,9.31,0,16.93,1,24.19-.21,15.72-2.6,24.07,3.72,30.59,18,10,21.84,22.43,42.58,33.81,63.79,1,1.85,1.83,3.78,3.15,6.52-5,0-9.22.52-13.16-.22-2-.38-4.22-2.68-5.34-4.67C620,92.21,609.53,73,599,53.75c-1-1.88-2.16-3.69-3.83-6.52-1.7,2.48-3.08,4.25-4.22,6.16-9.81,16.39-19.49,32.85-29.42,49.17-2.57,4.24-4.89,8.13,0,13.2"/><path class="cls-4" d="M295.7,40.67a12.82,12.82,0,0,1-.83-2.17c-1-10.9-.95-10.91,9.83-10.91,30.35,0,60.7.14,91-.11,6-.05,8.17,1.88,7.8,7.83-.26,4.1-1.58,5.89-5.82,5.79-7.2-.17-14.42.22-21.61-.1-5.53-.25-7.59,1.44-7.48,7.33.36,20,.14,39.93.14,59.9v7.44H332.82v-7c0-20.4-.18-40.8.12-61.19.08-5.54-1.78-7.09-7.1-6.91-10,.35-20,.1-30.14.1"/><path class="cls-4" d="M415.82,28.19c10.65,0,20.86-.2,31.05.24,1.32.06,3.58,3.37,3.6,5.2.24,23,.16,45.95.16,69.78h52.68v12.12H415.82Z"/></g></g></svg>